# xmcd
#
# Track frame offsets:
# 150
# 44130
# 71853
# 96983
# 121408
# 159863
# 183623
# 213905
# 234363
# 252868
# 278983
# 300633
# 323640
#
# Disc length: 4638 seconds
#
#
# Revision: 1
# Processed by: cddbd v1.5.2PL0 Copyright (c) Steve Scherf et al.
# Submitted via: FreeRIP 2.944 
#
DISCID=bb121c0d
DTITLE=Buddy and Monk Montgomery - The Mastersounds
DYEAR=1960
DGENRE=Jazz
TTITLE0=Golden Earrings
TTITLE1=People Will Say We´re in Love
TTITLE2=(There Is) No Greater Love
TTITLE3=West Coast Blues
TTITLE4=I´ve Never Been in Love Before/Don´t Blame Me
TTITLE5=I Could Write a Book
TTITLE6=Whisper Not
TTITLE7=Fink, Fank, Funk
TTITLE8=It Could Happen To You
TTITLE9=Try It
TTITLE10=Alone Together
TTITLE11=For now
TTITLE12=Surrey With the Fringe on Top
EXTD=YEAR: 1960
EXTT0=
EXTT1=
EXTT2=
EXTT3=
EXTT4=
EXTT5=
EXTT6=
EXTT7=
EXTT8=
EXTT9=
EXTT10=
EXTT11=
EXTT12=
PLAYORDER=
